# xmcd
#
# Track frame offsets:
#	150
#	16309
#	34544
#	45934
#	58982
#	77580
#	93739
#	111974
#	123364
#	136412
#	166410
#
# Disc length: 2260 seconds
#
# Revision: 1
# Processed by: cddbd v1.5.2PL0 Copyright (c) Steve Scherf et al.
# Submitted via: audiograbber 1.83.01
#
DISCID=8a08d20b
DTITLE=Alan Jackson - Sing Alan Jackson v.3
DYEAR=1900
DGENRE=Karaoke
TTITLE0=That'd Be Allright
TTITLE1=Work In Progress
TTITLE2=Chattahoochee
TTITLE3=It's Alright to be a Redneck
TTITLE4=Crive
TTITLE5=That'd Be Allright
TTITLE6=Work In Progress
TTITLE7=Chattahoochee
TTITLE8=It's Alright to be a Redneck
TTITLE9=Crive
TTITLE10=Data Track
EXTD=
EXTT0=
EXTT1=
EXTT2=
EXTT3=
EXTT4=
EXTT5=
EXTT6=
EXTT7=
EXTT8=
EXTT9=
EXTT10=
PLAYORDER=
